<?xml version="1.0" encoding="UTF-8"?>
<svg width="512px" height="454px" viewBox="0 0 512 454" version="1.1" xmlns="http://www.w3.org/2000/svg" xmlns:xlink="http://www.w3.org/1999/xlink">
    <!-- Generator: Sketch 49.1 (51147) - http://www.bohemiancoding.com/sketch -->
    <title>dish</title>
    <desc>Created with Sketch.</desc>
    <defs></defs>
    <g id="Page-1" stroke="none" stroke-width="1" fill="none" fill-rule="evenodd">
        <g id="dish">
            <path d="M154.848,74.968 C154.335,74.491 153.827,74.02 153.33,73.546 C148.593,69.028 147.227,67.549 147.227,63.583 C147.227,59.618 148.593,58.14 153.329,53.625 C155.256,51.787 157.441,49.704 159.527,47.206 C162.218,43.983 161.787,39.188 158.563,36.497 C155.34,33.806 150.545,34.236 147.854,37.461 C146.323,39.295 144.629,40.91 142.836,42.62 C137.519,47.689 132.021,52.931 132.021,63.584 C132.021,74.235 137.519,79.479 142.836,84.549 C143.379,85.067 143.935,85.584 144.496,86.105 C149.379,90.643 152.908,93.922 152.908,101.953 C152.908,110.808 148.465,115.695 143.321,121.354 C142.831,121.893 142.346,122.426 141.871,122.958 C139.07,126.086 139.335,130.892 142.463,133.694 C143.914,134.993 145.726,135.633 147.532,135.633 C149.619,135.633 151.697,134.779 153.198,133.102 C153.648,132.599 154.108,132.094 154.572,131.584 C160.286,125.298 168.114,116.689 168.114,101.955 C168.114,87.297 160.446,80.171 154.848,74.968 Z" id="Shape" fill="#36454F" fill-rule="nonzero"></path>
            <path d="M260.781,40.712 C260.268,40.235 259.76,39.764 259.263,39.29 C254.526,34.772 253.16,33.293 253.16,29.327 C253.16,25.363 254.526,23.885 259.262,19.369 C261.189,17.531 263.374,15.448 265.46,12.95 C268.151,9.727 267.72,4.932 264.496,2.241 C261.273,-0.45 256.479,-0.019 253.787,3.205 C252.256,5.039 250.562,6.654 248.768,8.364 C243.451,13.434 237.954,18.675 237.954,29.327 C237.954,39.979 243.452,45.222 248.769,50.293 C249.312,50.811 249.868,51.328 250.429,51.849 C255.312,56.387 258.841,59.666 258.841,67.698 C258.841,76.553 254.398,81.439 249.254,87.098 C248.764,87.637 248.279,88.17 247.804,88.702 C245.003,91.83 245.268,96.636 248.396,99.438 C249.847,100.737 251.659,101.377 253.465,101.377 C255.552,101.377 257.63,100.523 259.131,98.846 C259.581,98.343 260.041,97.838 260.505,97.328 C266.22,91.042 274.047,82.433 274.047,67.699 C274.047,53.04 266.379,45.915 260.781,40.712 Z" id="Shape" fill="#36454F" fill-rule="nonzero"></path>
            <path d="M366.713,74.968 C366.2,74.491 365.692,74.02 365.195,73.546 C360.458,69.028 359.092,67.549 359.092,63.583 C359.092,59.618 360.458,58.14 365.194,53.625 C367.121,51.787 369.306,49.704 371.392,47.206 C374.083,43.983 373.652,39.188 370.428,36.497 C367.206,33.806 362.41,34.236 359.719,37.461 C358.188,39.295 356.494,40.91 354.701,42.62 C349.384,47.689 343.886,52.931 343.886,63.584 C343.886,74.235 349.384,79.479 354.701,84.549 C355.244,85.067 355.8,85.584 356.361,86.105 C361.244,90.643 364.773,93.922 364.773,101.953 C364.773,110.808 360.33,115.695 355.186,121.354 C354.696,121.893 354.211,122.426 353.736,122.958 C350.935,126.086 351.2,130.892 354.328,133.694 C355.779,134.993 357.591,135.633 359.397,135.633 C361.484,135.633 363.562,134.779 365.063,133.102 C365.513,132.599 365.973,132.094 366.437,131.584 C372.151,125.298 379.979,116.689 379.979,101.955 C379.979,87.297 372.311,80.171 366.713,74.968 Z" id="Shape" fill="#36454F" fill-rule="nonzero"></path>
            <path d="M504.397,391.093 L7.603,391.093 C3.404,391.093 0,394.497 0,398.696 L0,416.932 C0,437.11 16.415,453.526 36.593,453.526 L475.407,453.526 C495.585,453.526 512,437.11 512,416.932 L512,398.696 C512,394.497 508.596,391.093 504.397,391.093 Z M496.795,416.932 C496.794,428.725 487.199,438.32 475.406,438.32 L36.593,438.32 C24.8,438.32 15.206,428.725 15.206,416.932 L15.206,406.299 L496.795,406.299 L496.795,416.932 Z" id="Shape" fill="#36454F" fill-rule="nonzero"></path>
            <path d="M394.186,227.353 C363.591,197.89 325.077,179.293 283.636,173.553 L298.372,158.817 C302.828,154.361 304.15,147.719 301.738,141.897 C299.326,136.074 293.696,132.312 287.393,132.312 L224.609,132.312 C218.306,132.312 212.676,136.074 210.264,141.897 C207.852,147.719 209.174,154.361 213.63,158.817 L228.366,173.554 C186.883,179.299 148.338,197.926 117.728,227.439 C80.512,263.322 58.916,311.477 56.918,363.033 C56.756,367.229 60.026,370.762 64.221,370.925 C64.321,370.928 64.421,370.93 64.52,370.93 C68.583,370.93 71.954,367.717 72.112,363.622 C73.956,316.007 93.904,271.53 128.281,238.384 C160.267,207.543 201.636,189.572 245.703,187.144 C246.508,187.1 247.31,187.06 248.108,187.025 C249.056,186.985 250.004,186.949 250.954,186.923 C251.41,186.91 251.858,186.903 252.31,186.893 C253.539,186.869 254.768,186.849 256,186.849 C257.232,186.849 258.46,186.869 259.689,186.893 C260.139,186.902 260.587,186.91 261.042,186.923 C261.993,186.949 262.943,186.985 263.891,187.025 C264.686,187.059 265.486,187.099 266.289,187.143 C310.319,189.568 351.662,207.512 383.638,238.306 C418.001,271.399 437.974,315.818 439.878,363.381 C440.046,367.576 443.578,370.823 447.779,370.674 C451.975,370.506 455.24,366.969 455.072,362.773 C453.01,311.272 431.387,263.179 394.186,227.353 Z M263.879,171.805 C263.562,171.792 263.256,171.788 262.942,171.776 C262.041,171.745 261.14,171.713 260.237,171.694 C258.868,171.664 257.509,171.646 256.153,171.645 C256.102,171.645 256.051,171.643 256,171.643 C255.949,171.643 255.898,171.645 255.848,171.645 C254.492,171.646 253.133,171.663 251.764,171.694 C250.86,171.713 249.958,171.745 249.056,171.776 C248.743,171.787 248.438,171.792 248.122,171.804 L224.381,148.065 C224.268,147.952 224.23,147.914 224.312,147.716 C224.394,147.518 224.448,147.518 224.608,147.518 L287.392,147.518 C287.552,147.518 287.607,147.518 287.689,147.716 C287.771,147.913 287.733,147.952 287.619,148.065 L263.879,171.805 Z" id="Shape" fill="#36454F" fill-rule="nonzero"></path>
            <rect id="Rectangle" x="0" y="0" width="512" height="512"></rect>
        </g>
    </g>
</svg>