<?xml version="1.0" encoding="UTF-8"?>
<svg width="512px" height="512px" viewBox="0 0 512 512" version="1.1" xmlns="http://www.w3.org/2000/svg" xmlns:xlink="http://www.w3.org/1999/xlink">
    <!-- Generator: Sketch 49.1 (51147) - http://www.bohemiancoding.com/sketch -->
    <title>rings</title>
    <desc>Created with Sketch.</desc>
    <defs></defs>
    <g id="Page-1" stroke="none" stroke-width="1" fill="none" fill-rule="evenodd">
        <g id="rings" fill="#36454F" fill-rule="nonzero">
            <path d="M506.657,297.429 C496.923,257.472 473.251,222.19 440.003,198.083 C408.354,175.136 369.817,163.517 331.043,165.124 C313.17,126.767 282.051,96.459 242.892,79.445 C239.048,77.777 234.581,79.538 232.91,83.38 C231.241,87.223 233.002,91.692 236.845,93.362 C274.093,109.545 303.374,138.891 319.296,175.993 C322.781,184.114 325.606,192.574 327.692,201.139 C328.246,203.413 328.757,205.752 329.254,208.291 C329.254,208.293 329.255,208.295 329.255,208.296 C336.851,247.066 329.704,287.046 309.13,320.873 C289.68,352.851 259.828,376.704 224.587,388.582 C223.951,387.136 223.343,385.676 222.762,384.204 C222.755,384.187 222.749,384.171 222.743,384.154 C221.626,381.322 220.618,378.442 219.708,375.527 C219.635,375.293 219.562,375.059 219.491,374.824 C219.07,373.447 218.669,372.062 218.295,370.669 C218.286,370.634 218.277,370.599 218.268,370.564 C284.55,348.318 324.635,279.303 310.155,210.15 C310.155,210.149 310.155,210.148 310.155,210.147 C309.798,208.441 309.477,207.013 309.146,205.654 C306.628,195.321 302.947,185.305 298.204,175.884 C298.194,175.864 298.183,175.846 298.173,175.826 C298.141,175.763 298.108,175.702 298.074,175.64 C284.147,148.118 261.032,125.711 232.951,112.532 C219.489,106.214 205.121,102.149 190.476,100.396 L244.369,50.302 C247.101,47.762 247.582,43.613 245.503,40.516 L245.467,40.463 C245.466,40.462 245.466,40.461 245.465,40.46 L220.551,3.357 C219.142,1.259 216.78,0 214.253,0 L133.503,0 C130.975,0 128.614,1.259 127.204,3.357 L102.251,40.518 C100.172,43.615 100.652,47.764 103.385,50.304 L157.273,100.394 C151.786,101.049 146.325,102.026 140.924,103.341 C66.337,121.512 20.439,196.977 38.608,271.564 C46.099,302.314 64.03,329.832 89.098,349.051 C112.129,366.708 140.325,376.796 169.121,377.783 C169.259,378.378 169.399,378.968 169.541,379.555 C169.879,380.943 170.237,382.321 170.607,383.693 C170.693,384.011 170.785,384.329 170.872,384.647 C171.174,385.744 171.485,386.836 171.807,387.922 C171.896,388.221 171.987,388.52 172.078,388.819 C172.43,389.982 172.793,391.139 173.167,392.289 C173.231,392.487 173.295,392.685 173.36,392.883 C173.809,394.245 174.27,395.599 174.75,396.943 C141.381,397.112 108.508,386.659 81.181,366.946 C50.682,344.944 28.975,312.674 20.061,276.081 C11.163,239.556 15.562,200.979 32.45,167.456 C49.151,134.303 77.003,107.982 110.877,93.342 C114.723,91.679 116.493,87.214 114.831,83.368 C113.168,79.523 108.702,77.75 104.857,79.414 C67.726,95.463 37.199,124.306 18.9,160.63 C0.392,197.371 -4.43,239.648 5.32,279.673 C15.089,319.773 38.879,355.137 72.305,379.251 C101.972,400.653 137.611,412.12 173.839,412.119 C176.197,412.119 178.558,412.056 180.92,411.959 C209.399,472.938 271.184,512.001 338.103,512 C351.656,512 365.423,510.397 379.162,507.05 C472.105,484.408 529.299,390.373 506.657,297.429 Z M322.094,328.758 C343,294.386 351.244,254.211 345.696,214.669 C370.384,216.199 394.443,225.21 414.152,240.482 C436.531,257.823 451.909,281.561 458.626,309.131 C474.816,375.59 433.92,442.829 367.461,459.019 C335.268,466.863 301.947,461.699 273.636,444.48 C256.113,433.822 241.813,419.333 231.596,402.206 C269.28,388.951 301.18,363.146 322.094,328.758 Z M215.222,355.562 C211.346,327.952 216.842,299.996 231.132,275.67 C246.084,250.217 269.176,231.236 296.74,221.535 C304.867,279.674 270.586,336.037 215.222,355.562 Z M137.546,15.173 L210.208,15.173 L224.935,37.105 L122.82,37.105 L137.546,15.173 Z M127.794,52.278 L219.96,52.278 L173.877,95.113 L127.794,52.278 Z M166.267,362.443 C141.804,360.938 117.957,352.058 98.331,337.01 C75.676,319.641 60.123,295.768 53.352,267.972 C37.162,201.514 78.058,134.274 144.517,118.083 C172.313,111.311 200.665,114.143 226.507,126.27 C248.897,136.777 267.726,153.869 280.331,174.902 C241.401,188.592 208.838,215.529 187.971,251.55 C168.378,285.372 160.884,324.174 166.267,362.443 Z M375.571,492.308 C363.028,495.364 350.476,496.826 338.104,496.825 C275.108,496.82 217.091,458.877 192.294,400.182 C192.023,399.539 191.752,398.897 191.489,398.251 C191.383,397.99 191.281,397.727 191.176,397.466 C190.853,396.66 190.533,395.852 190.224,395.04 C190.178,394.919 190.134,394.797 190.088,394.675 C189.734,393.74 189.386,392.802 189.05,391.86 C189.039,391.83 189.029,391.799 189.018,391.769 C188.655,390.752 188.302,389.731 187.96,388.706 C187.958,388.7 187.956,388.695 187.954,388.689 C187.607,387.65 187.271,386.608 186.946,385.563 C186.923,385.489 186.902,385.414 186.879,385.34 C186.578,384.366 186.284,383.391 186.002,382.413 C185.91,382.093 185.824,381.77 185.733,381.448 C185.524,380.708 185.315,379.968 185.117,379.225 C184.829,378.143 184.551,377.056 184.285,375.963 C184.015,374.856 183.762,373.747 183.517,372.637 C183.422,372.205 183.329,371.763 183.236,371.322 C183.129,370.817 183.026,370.312 182.924,369.807 C182.857,369.475 182.79,369.148 182.723,368.809 C182.714,368.763 182.7,368.72 182.691,368.675 C175.361,331.09 181.8,292.474 201.101,259.155 C220.501,225.665 250.976,200.782 287.384,188.521 C289.939,194.332 292.054,200.361 293.704,206.531 C261.875,217.194 235.195,238.799 218.052,267.982 C200.406,298.019 194.712,332.988 201.824,366.944 C201.824,366.946 201.825,366.949 201.825,366.951 C201.828,366.968 201.832,366.982 201.835,366.999 C201.961,367.6 202.089,368.2 202.223,368.8 C202.429,369.735 202.63,370.607 202.834,371.445 C203.134,372.676 203.453,373.899 203.784,375.117 C203.865,375.415 203.953,375.712 204.036,376.01 C204.3,376.956 204.571,377.899 204.853,378.836 C204.938,379.119 205.027,379.4 205.115,379.682 C205.42,380.671 205.735,381.656 206.06,382.636 C206.126,382.833 206.192,383.029 206.258,383.225 C206.639,384.356 207.035,385.48 207.444,386.597 C207.459,386.637 207.473,386.677 207.488,386.717 C218.292,416.153 238.568,440.906 265.755,457.442 C287.841,470.875 312.641,477.771 337.848,477.77 C348.903,477.77 360.04,476.443 371.056,473.759 C445.643,455.589 491.541,380.124 473.371,305.537 C465.833,274.596 448.57,247.952 423.448,228.486 C400.335,210.577 371.886,200.317 342.858,199.322 C342.72,198.725 342.58,198.133 342.436,197.545 C341.008,191.681 339.263,185.861 337.223,180.15 C370.716,179.95 403.721,190.517 431.097,210.366 C461.434,232.361 483.032,264.556 491.916,301.019 C512.576,385.835 460.385,471.646 375.571,492.308 Z" id="Shape"></path>
        </g>
    </g>
</svg>