<?xml version="1.0" encoding="UTF-8"?>
<svg width="511px" height="484px" viewBox="0 0 511 484" version="1.1" xmlns="http://www.w3.org/2000/svg" xmlns:xlink="http://www.w3.org/1999/xlink">
    <!-- Generator: Sketch 49.1 (51147) - http://www.bohemiancoding.com/sketch -->
    <title>wine</title>
    <desc>Created with Sketch.</desc>
    <defs></defs>
    <g id="Page-1" stroke="none" stroke-width="1" fill="none" fill-rule="evenodd">
        <g id="wine">
            <path d="M73.3956491,66.511 L65.3912827,66.511 L65.3912827,58.491 C65.3912827,54.464 62.1336452,51.2 58.1144951,51.2 C54.095345,51.2 50.8377076,54.464 50.8377076,58.491 L50.8377076,66.511 L42.8333411,66.511 C38.814191,66.511 35.5565536,69.775 35.5565536,73.802 C35.5565536,77.829 38.814191,81.093 42.8333411,81.093 L50.8377076,81.093 L50.8377076,89.113 C50.8377076,93.14 54.095345,96.404 58.1144951,96.404 C62.1336452,96.404 65.3912827,93.14 65.3912827,89.113 L65.3912827,81.093 L73.3956491,81.093 C77.4147992,81.093 80.6724366,77.829 80.6724366,73.802 C80.6724366,69.775 77.4138012,66.511 73.3956491,66.511 Z" id="Shape" fill="#36454F" fill-rule="nonzero"></path>
            <path d="M468.170604,66.511 L460.166238,66.511 L460.166238,58.491 C460.166238,54.464 456.9086,51.2 452.88945,51.2 C448.8703,51.2 445.612663,54.464 445.612663,58.491 L445.612663,66.511 L437.608296,66.511 C433.589146,66.511 430.331509,69.775 430.331509,73.802 C430.331509,77.829 433.589146,81.093 437.608296,81.093 L445.612663,81.093 L445.612663,89.113 C445.612663,93.14 448.8703,96.404 452.88945,96.404 C456.9086,96.404 460.166238,93.14 460.166238,89.113 L460.166238,81.093 L468.170604,81.093 C472.189754,81.093 475.447392,77.829 475.447392,73.802 C475.447392,69.775 472.188756,66.511 468.170604,66.511 Z" id="Shape" fill="#36454F" fill-rule="nonzero"></path>
            <path d="M270.783127,15.619 L262.77876,15.619 L262.77876,7.599 C262.77876,3.572 259.521123,0.308 255.501973,0.308 C251.482823,0.308 248.225185,3.572 248.225185,7.599 L248.225185,15.619 L240.220819,15.619 C236.201669,15.619 232.944031,18.883 232.944031,22.91 C232.944031,26.937 236.201669,30.201 240.220819,30.201 L248.225185,30.201 L248.225185,38.221 C248.225185,42.248 251.482823,45.512 255.501973,45.512 C259.521123,45.512 262.77876,42.248 262.77876,38.221 L262.77876,30.201 L270.783127,30.201 C274.802277,30.201 278.059914,26.937 278.059914,22.91 C278.059914,18.883 274.801279,15.619 270.783127,15.619 Z" id="Shape" fill="#36454F" fill-rule="nonzero"></path>
            <path d="M242.834713,145.905 L126.314292,101.725 C117.991548,98.571 108.794511,102.243 104.91908,110.267 L61.4110565,200.343 C58.6923665,205.972 56.6014503,211.835 55.1373099,217.826 C55.0953918,217.965 55.0375049,218.096 55.0025731,218.238 C51.5433294,232.574 51.8287719,247.042 55.2421053,260.565 C55.2710487,260.679 55.2979961,260.794 55.3269396,260.908 C55.4976062,261.574 55.6712671,262.238 55.8579025,262.899 C56.0964366,263.754 56.3489435,264.607 56.614425,265.456 C56.7242105,265.805 56.8379883,266.152 56.9517661,266.499 C57.5316335,268.28 58.1614035,270.048 58.8570448,271.797 C58.9708226,272.083 59.1035634,272.36 59.2203353,272.644 C59.4768343,273.268 59.746308,273.885 60.0167797,274.502 C60.3351579,275.232 60.65154,275.962 60.9898791,276.681 C61.1954776,277.119 61.4180429,277.549 61.6316257,277.984 C62.9740039,280.725 64.4511189,283.384 66.0579805,285.955 C66.3813489,286.474 66.7007251,286.995 67.0350721,287.508 C67.4293021,288.11 67.8375049,288.701 68.2457076,289.293 C68.6728733,289.915 69.1050292,290.533 69.5481637,291.144 C69.9104561,291.641 70.2777388,292.134 70.6500117,292.623 C71.2009357,293.349 71.7638363,294.065 72.3367173,294.775 C72.6351345,295.144 72.9315556,295.514 73.235961,295.878 C73.9864951,296.778 74.7589864,297.661 75.5454503,298.532 C75.697154,298.7 75.8448655,298.872 75.9975673,299.039 C80.029692,303.433 84.5289045,307.436 89.443306,310.976 C89.521154,311.032 89.6,311.087 89.678846,311.143 C90.7866823,311.936 91.9154776,312.704 93.065232,313.448 C93.2388928,313.561 93.4135517,313.673 93.5892086,313.784 C94.641154,314.454 95.7100663,315.103 96.7949474,315.731 C97.04446,315.876 97.2929747,316.022 97.5434854,316.165 C98.560499,316.74 99.5934815,317.293 100.638441,317.831 C100.946838,317.99 101.250246,318.155 101.560639,318.31 C101.808156,318.434 102.063657,318.545 102.31317,318.666 L66.7306667,412.852 C65.2844912,412.306 63.7035789,412.22 62.2055049,412.608 L7.2368655,426.89 C3.1468538,427.951 0.243524366,431.505 0.0149707602,435.734 C-0.214580897,439.962 2.28753216,443.811 6.24081092,445.311 L105.800359,483.06 C106.925162,483.486 108.087891,483.692 109.235649,483.692 C112.122012,483.692 114.916554,482.39 116.792889,480.015 C119.415766,476.694 119.590425,472.106 117.226043,468.595 L85.465076,421.429 C84.598768,420.142 83.3551969,419.156 81.9070253,418.607 L117.472561,324.441 C125.190487,326.576 133.126986,327.639 141.054503,327.639 C154.806643,327.639 168.526846,324.444 181.015454,318.117 C203.128265,306.915 219.639018,286.779 226.314979,262.87 L253.226417,166.5 C255.623735,157.915 251.15646,149.061 242.834713,145.905 Z M95.4455828,463.084 L27.2008733,437.208 L63.6606628,427.736 L74.3797271,431.8 L95.4455828,463.084 Z M238.799595,162.455 L229.096546,197.205 L135.059212,205.808 C130.939259,206.184 127.905185,209.836 128.28145,213.964 C128.657715,218.092 132.296608,221.132 136.421552,220.756 L224.777981,212.673 L211.890152,258.826 C206.343984,278.688 192.626776,295.416 174.257653,304.722 C155.887532,314.028 134.308678,315.178 115.057279,307.878 C113.921497,307.447 112.800686,306.984 111.69285,306.5 C111.415392,306.379 111.14492,306.248 110.869458,306.123 C110.017123,305.738 109.170776,305.343 108.336405,304.926 C108.075914,304.796 107.818417,304.661 107.559922,304.528 C106.682635,304.077 105.814331,303.612 104.958004,303.127 C104.778355,303.026 104.599704,302.924 104.421053,302.822 C103.409029,302.238 102.408982,301.635 101.427899,301.004 C101.414924,300.996 101.400951,300.988 101.387977,300.979 C97.1452632,298.248 93.202963,295.09 89.6169669,291.567 C89.5770448,291.527 89.5361248,291.488 89.4952047,291.448 C88.635883,290.6 87.7965224,289.73 86.9791189,288.84 C86.9501754,288.808 86.9192359,288.777 86.8902924,288.745 C85.228538,286.93 83.6596023,285.029 82.1844834,283.053 C82.0317817,282.847 81.8860663,282.636 81.7343626,282.429 C81.2083899,281.71 80.6953918,280.981 80.1953684,280.242 C79.9518441,279.881 79.7133099,279.516 79.4757739,279.15 C79.0815439,278.544 78.6972943,277.931 78.3200312,277.313 C78.0685224,276.9 77.8160156,276.487 77.5724912,276.069 C77.2022144,275.434 76.8469084,274.789 76.4955945,274.142 C76.288,273.759 76.071423,273.381 75.8708148,272.995 C75.3498324,271.994 74.849809,270.981 74.3737388,269.953 C74.2429942,269.671 74.1252242,269.384 73.9974737,269.1 C73.6271969,268.272 73.2659025,267.44 72.9245692,266.597 C72.8048031,266.301 72.6910253,266.001 72.5742534,265.703 C72.2149552,264.779 71.8706277,263.85 71.5492554,262.915 C71.4933645,262.752 71.4354776,262.589 71.3805848,262.425 C67.5410838,250.957 66.6308616,238.76 68.5710721,226.961 L98.678269,224.207 C102.798222,223.83 105.832296,220.179 105.456031,216.051 C105.079766,211.922 101.429895,208.874 97.3159298,209.259 L72.8796569,211.495 C73.5024405,209.941 74.1601559,208.397 74.8927251,206.881 L118.401747,116.804 C118.760047,116.061 119.491618,115.625 120.267103,115.625 C120.51462,115.625 120.765131,115.67 121.010651,115.763 L237.529076,159.943 C238.547088,160.329 239.092023,161.407 238.799595,162.455 Z" id="Shape" fill="#36454F" fill-rule="nonzero"></path>
            <path d="M510.987977,435.733 C510.759423,431.506 507.85809,427.952 503.76708,426.889 L448.797442,412.607 C447.300366,412.219 445.71646,412.304 444.266292,412.852 L408.697762,318.664 C408.944281,318.544 409.197786,318.434 409.443306,318.312 C409.754698,318.156 410.060101,317.991 410.368499,317.832 C411.411462,317.295 412.443446,316.743 413.458464,316.169 C413.711969,316.025 413.963478,315.877 414.214986,315.731 C415.296873,315.105 416.361793,314.458 417.410745,313.79 C417.589396,313.676 417.767049,313.562 417.944702,313.447 C419.090464,312.705 420.216265,311.939 421.321107,311.149 C421.401949,311.091 421.483789,311.035 421.563634,310.977 C426.475041,307.438 430.971259,303.438 435.001388,299.047 C435.161076,298.873 435.313778,298.694 435.472468,298.519 C436.251945,297.655 437.01745,296.78 437.761996,295.888 C438.071392,295.518 438.373801,295.141 438.677209,294.765 C439.244101,294.063 439.801014,293.354 440.345949,292.636 C440.723212,292.139 441.096483,291.64 441.463766,291.135 C441.899914,290.534 442.324086,289.926 442.745263,289.314 C443.160452,288.712 443.575641,288.111 443.97586,287.498 C444.300226,287.002 444.608624,286.496 444.922012,285.994 C446.55083,283.391 448.04591,280.699 449.403259,277.923 C449.603867,277.512 449.814456,277.107 450.009076,276.693 C450.352405,275.961 450.674776,275.218 450.999142,274.475 C451.262628,273.872 451.526113,273.269 451.776624,272.66 C451.895392,272.37 452.030129,272.089 452.145903,271.798 C452.84354,270.042 453.476304,268.268 454.05717,266.48 C454.167953,266.143 454.277739,265.807 454.38453,265.468 C454.652008,264.611 454.907509,263.751 455.148039,262.887 C455.33168,262.234 455.503345,261.579 455.672016,260.921 C455.704951,260.793 455.735891,260.664 455.767828,260.536 C459.175173,247.021 459.457622,232.563 456.000374,218.237 C455.966441,218.095 455.907556,217.964 455.865637,217.825 C454.402495,211.834 452.310581,205.971 449.591891,200.342 L406.083867,110.267 C402.208437,102.242 393.0114,98.568 384.687657,101.724 L268.168234,145.904 C259.846487,149.06 255.379212,157.914 257.77653,166.497 L284.685973,262.867 C286.146121,268.097 288.077349,273.147 290.434745,277.962 C298.853302,295.158 312.710238,309.363 329.985497,318.114 C332.161248,319.216 334.374924,320.217 336.618542,321.128 C347.256764,325.451 358.588632,327.636 369.946448,327.635 C377.871969,327.635 385.809466,326.572 393.527392,324.437 L429.092928,418.604 C427.643758,419.153 426.401185,420.139 425.534877,421.426 L393.77391,468.592 C391.410526,472.102 391.584187,476.691 394.207064,480.012 C396.0834,482.388 398.87894,483.689 401.764304,483.689 C402.912062,483.689 404.074791,483.483 405.199595,483.057 L504.761138,445.307 C508.716413,443.81 511.217528,439.962 510.987977,435.733 Z M406.04694,303.128 C405.190612,303.613 404.322308,304.078 403.445021,304.529 C403.186526,304.662 402.929029,304.797 402.668538,304.927 C401.834168,305.343 400.987821,305.739 400.135485,306.124 C399.860023,306.248 399.589552,306.379 399.312094,306.501 C398.203259,306.986 397.083446,307.449 395.947665,307.879 C376.694269,315.179 355.118409,314.029 336.74729,304.723 C318.37717,295.417 304.660959,278.688 299.114791,258.827 L286.226963,212.674 L309.20708,214.776 C313.318051,215.165 316.970916,212.113 317.347181,207.984 C317.723446,203.856 314.688374,200.205 310.568421,199.828 L281.908398,197.206 L272.204351,162.455 C271.911922,161.408 272.456858,160.33 273.471875,159.945 L389.9903,115.765 C391.003322,115.38 392.127127,115.828 392.600203,116.808 L436.108226,206.884 C436.840795,208.4 437.498511,209.944 438.121294,211.498 L350.083244,203.443 C345.957302,203.065 342.319407,206.107 341.943142,210.235 C341.566877,214.363 344.600951,218.013 348.720904,218.391 L442.429879,226.965 C444.369092,238.764 443.458869,250.961 439.620366,262.429 C439.565474,262.593 439.508585,262.756 439.451696,262.919 C439.131322,263.854 438.785996,264.783 438.426698,265.707 C438.309926,266.005 438.197146,266.304 438.076382,266.601 C437.736047,267.444 437.374752,268.277 437.003478,269.104 C436.876725,269.388 436.757957,269.675 436.627212,269.957 C436.151142,270.984 435.651119,271.998 435.130136,272.999 C434.929528,273.385 434.712951,273.763 434.505357,274.146 C434.154043,274.793 433.798737,275.438 433.42846,276.073 C433.184936,276.491 432.932429,276.904 432.68092,277.317 C432.303657,277.935 431.919407,278.548 431.525177,279.154 C431.287641,279.519 431.050105,279.884 430.805583,280.246 C430.305559,280.985 429.792561,281.713 429.266589,282.433 C429.115883,282.64 428.970168,282.851 428.816468,283.057 C427.341349,285.033 425.772413,286.934 424.110659,288.749 C424.081715,288.781 424.050776,288.812 424.021832,288.844 C423.204429,289.734 422.366066,290.603 421.505747,291.452 C421.465825,291.492 421.424904,291.531 421.383984,291.571 C417.797988,295.094 413.85469,298.252 409.612975,300.983 C409.6,300.991 409.587025,300.999 409.573053,301.008 C408.591969,301.639 407.591922,302.242 406.579899,302.826 C406.40524,302.925 406.225591,303.026 406.04694,303.128 Z M415.557365,463.084 L436.62322,431.8 L447.342285,427.736 L483.802074,437.208 L415.557365,463.084 Z" id="Shape" fill="#36454F" fill-rule="nonzero"></path>
            <rect id="Rectangle" x="0" y="0" width="511.001949" height="512"></rect>
        </g>
    </g>
</svg>